<svg xmlns="http://www.w3.org/2000/svg" width="1920" height="1080" viewBox="0 0 1920 1080">
<defs>
<linearGradient id="nsky" x1="0" y1="0" x2="0.2" y2="1">
  <stop offset="0" stop-color="#070b26"/><stop offset="0.45" stop-color="#131a44"/>
  <stop offset="0.75" stop-color="#2b2360"/><stop offset="1" stop-color="#4d3a78"/>
</linearGradient>
<linearGradient id="mway" x1="0" y1="0" x2="1" y2="1">
  <stop offset="0" stop-color="#8fa7e8" stop-opacity="0"/><stop offset="0.5" stop-color="#aebfff" stop-opacity="0.30"/><stop offset="1" stop-color="#8fa7e8" stop-opacity="0"/>
</linearGradient>
<radialGradient id="moonglow" cx="0.5" cy="0.5" r="0.5">
  <stop offset="0" stop-color="#fdf3d8" stop-opacity="0.85"/><stop offset="0.4" stop-color="#f5e6bf" stop-opacity="0.25"/><stop offset="1" stop-color="#f5e6bf" stop-opacity="0"/>
</radialGradient>
<filter id="nsoft" x="-40%" y="-40%" width="180%" height="180%"><feGaussianBlur stdDeviation="22"/></filter>
<filter id="mblur" x="-60%" y="-60%" width="220%" height="220%"><feGaussianBlur stdDeviation="46"/></filter>
</defs>
<rect width="1920" height="1080" fill="url(#nsky)"/>
<g transform="rotate(-24 960 540)"><ellipse cx="960" cy="430" rx="1400" ry="200" fill="url(#mway)" filter="url(#mblur)"/></g>
<circle cx="174" cy="107" r="2.1" fill="#eaf2ff" opacity="0.28"/><circle cx="1590" cy="142" r="1.6" fill="#eaf2ff" opacity="0.91"/><circle cx="628" cy="184" r="2.1" fill="#eaf2ff" opacity="0.81"/><circle cx="465" cy="91" r="2.3" fill="#eaf2ff" opacity="0.34"/><circle cx="1857" cy="279" r="1.1" fill="#eaf2ff" opacity="0.89"/><circle cx="374" cy="146" r="1.2" fill="#eaf2ff" opacity="0.28"/><circle cx="258" cy="633" r="1.1" fill="#eaf2ff" opacity="0.69"/><circle cx="774" cy="285" r="0.7" fill="#eaf2ff" opacity="0.84"/><circle cx="1116" cy="764" r="1.3" fill="#eaf2ff" opacity="0.58"/><circle cx="833" cy="551" r="1.3" fill="#eaf2ff" opacity="0.39"/><circle cx="1539" cy="750" r="1.6" fill="#eaf2ff" opacity="0.53"/><circle cx="293" cy="857" r="2.0" fill="#eaf2ff" opacity="0.78"/><circle cx="1551" cy="436" r="0.8" fill="#eaf2ff" opacity="0.60"/><circle cx="1593" cy="493" r="1.4" fill="#eaf2ff" opacity="0.42"/><circle cx="1105" cy="130" r="0.9" fill="#eaf2ff" opacity="0.65"/><circle cx="1771" cy="879" r="2.2" fill="#eaf2ff" opacity="0.41"/><circle cx="296" cy="105" r="1.4" fill="#eaf2ff" opacity="0.29"/><circle cx="993" cy="60" r="0.8" fill="#eaf2ff" opacity="0.64"/><circle cx="853" cy="699" r="1.7" fill="#eaf2ff" opacity="0.26"/><circle cx="848" cy="177" r="0.9" fill="#eaf2ff" opacity="0.61"/><circle cx="1237" cy="350" r="1.3" fill="#eaf2ff" opacity="0.52"/><circle cx="78" cy="487" r="2.1" fill="#eaf2ff" opacity="0.63"/><circle cx="688" cy="412" r="1.2" fill="#eaf2ff" opacity="0.42"/><circle cx="1196" cy="705" r="1.7" fill="#eaf2ff" opacity="0.78"/><circle cx="724" cy="831" r="1.1" fill="#eaf2ff" opacity="0.59"/><circle cx="1098" cy="516" r="1.5" fill="#eaf2ff" opacity="0.92"/><circle cx="231" cy="831" r="1.4" fill="#eaf2ff" opacity="0.46"/><circle cx="233" cy="553" r="1.5" fill="#eaf2ff" opacity="0.60"/><circle cx="1436" cy="194" r="1.4" fill="#eaf2ff" opacity="0.45"/><circle cx="1541" cy="433" r="1.7" fill="#eaf2ff" opacity="0.73"/><circle cx="1804" cy="241" r="1.1" fill="#eaf2ff" opacity="0.42"/><circle cx="1064" cy="36" r="2.0" fill="#eaf2ff" opacity="0.89"/><circle cx="647" cy="100" r="1.9" fill="#eaf2ff" opacity="0.67"/><circle cx="957" cy="488" r="1.0" fill="#eaf2ff" opacity="0.54"/><circle cx="1260" cy="632" r="1.0" fill="#eaf2ff" opacity="0.61"/><circle cx="749" cy="422" r="1.5" fill="#eaf2ff" opacity="0.74"/><circle cx="893" cy="111" r="0.7" fill="#eaf2ff" opacity="0.70"/><circle cx="1385" cy="802" r="1.3" fill="#eaf2ff" opacity="0.76"/><circle cx="1206" cy="220" r="1.6" fill="#eaf2ff" opacity="0.71"/><circle cx="971" cy="587" r="1.3" fill="#eaf2ff" opacity="0.68"/><circle cx="799" cy="250" r="0.6" fill="#eaf2ff" opacity="0.43"/><circle cx="1378" cy="84" r="1.6" fill="#eaf2ff" opacity="0.34"/><circle cx="551" cy="735" r="2.2" fill="#eaf2ff" opacity="0.25"/><circle cx="782" cy="452" r="1.7" fill="#eaf2ff" opacity="0.76"/><circle cx="626" cy="604" r="1.0" fill="#eaf2ff" opacity="0.79"/><circle cx="913" cy="259" r="1.1" fill="#eaf2ff" opacity="0.57"/><circle cx="694" cy="229" r="0.7" fill="#eaf2ff" opacity="0.84"/><circle cx="230" cy="599" r="0.9" fill="#eaf2ff" opacity="0.45"/><circle cx="1417" cy="637" r="0.9" fill="#eaf2ff" opacity="0.71"/><circle cx="1815" cy="169" r="2.1" fill="#eaf2ff" opacity="0.43"/><circle cx="1469" cy="659" r="0.7" fill="#eaf2ff" opacity="0.47"/><circle cx="1424" cy="687" r="1.0" fill="#eaf2ff" opacity="0.44"/><circle cx="1584" cy="863" r="1.8" fill="#eaf2ff" opacity="0.69"/><circle cx="1784" cy="490" r="1.6" fill="#eaf2ff" opacity="0.61"/><circle cx="293" cy="113" r="0.9" fill="#eaf2ff" opacity="0.91"/><circle cx="1283" cy="246" r="1.2" fill="#eaf2ff" opacity="0.69"/><circle cx="534" cy="682" r="1.3" fill="#eaf2ff" opacity="0.66"/><circle cx="1224" cy="392" r="1.6" fill="#eaf2ff" opacity="0.50"/><circle cx="270" cy="678" r="1.2" fill="#eaf2ff" opacity="0.89"/><circle cx="920" cy="53" r="0.9" fill="#eaf2ff" opacity="0.36"/><circle cx="1657" cy="343" r="1.0" fill="#eaf2ff" opacity="0.38"/><circle cx="1746" cy="94" r="1.4" fill="#eaf2ff" opacity="0.38"/><circle cx="381" cy="81" r="1.6" fill="#eaf2ff" opacity="0.90"/><circle cx="953" cy="557" r="1.8" fill="#eaf2ff" opacity="0.32"/><circle cx="1231" cy="854" r="1.1" fill="#eaf2ff" opacity="0.30"/><circle cx="198" cy="469" r="1.2" fill="#eaf2ff" opacity="0.63"/><circle cx="390" cy="737" r="1.8" fill="#eaf2ff" opacity="0.76"/><circle cx="5" cy="7" r="1.5" fill="#eaf2ff" opacity="0.43"/><circle cx="1651" cy="38" r="0.6" fill="#eaf2ff" opacity="0.73"/><circle cx="1250" cy="590" r="2.1" fill="#eaf2ff" opacity="0.80"/><circle cx="1268" cy="800" r="2.1" fill="#eaf2ff" opacity="0.53"/><circle cx="259" cy="262" r="1.1" fill="#eaf2ff" opacity="0.25"/><circle cx="972" cy="705" r="2.2" fill="#eaf2ff" opacity="0.89"/><circle cx="540" cy="281" r="2.2" fill="#eaf2ff" opacity="0.38"/><circle cx="1143" cy="847" r="2.1" fill="#eaf2ff" opacity="0.37"/><circle cx="837" cy="787" r="1.4" fill="#eaf2ff" opacity="0.79"/><circle cx="1021" cy="811" r="1.3" fill="#eaf2ff" opacity="0.43"/><circle cx="1742" cy="613" r="1.4" fill="#eaf2ff" opacity="0.86"/><circle cx="203" cy="542" r="1.0" fill="#eaf2ff" opacity="0.28"/><circle cx="150" cy="325" r="2.2" fill="#eaf2ff" opacity="0.45"/><circle cx="1417" cy="148" r="1.7" fill="#eaf2ff" opacity="0.77"/><circle cx="352" cy="558" r="2.0" fill="#eaf2ff" opacity="0.52"/><circle cx="1129" cy="298" r="1.0" fill="#eaf2ff" opacity="0.92"/><circle cx="1447" cy="45" r="0.9" fill="#eaf2ff" opacity="0.58"/><circle cx="643" cy="542" r="2.2" fill="#eaf2ff" opacity="0.58"/><circle cx="1396" cy="435" r="2.1" fill="#eaf2ff" opacity="0.90"/><circle cx="1193" cy="7" r="1.6" fill="#eaf2ff" opacity="0.75"/><circle cx="437" cy="198" r="1.0" fill="#eaf2ff" opacity="0.93"/><circle cx="312" cy="441" r="1.7" fill="#eaf2ff" opacity="0.84"/><circle cx="14" cy="625" r="1.8" fill="#eaf2ff" opacity="0.36"/><circle cx="1012" cy="117" r="1.2" fill="#eaf2ff" opacity="0.63"/><circle cx="1078" cy="20" r="0.9" fill="#eaf2ff" opacity="0.53"/><circle cx="1111" cy="718" r="0.7" fill="#eaf2ff" opacity="0.56"/><circle cx="1730" cy="2" r="0.6" fill="#eaf2ff" opacity="0.84"/><circle cx="1132" cy="649" r="0.7" fill="#eaf2ff" opacity="0.43"/><circle cx="4" cy="877" r="1.3" fill="#eaf2ff" opacity="0.42"/><circle cx="30" cy="445" r="2.1" fill="#eaf2ff" opacity="0.65"/><circle cx="1754" cy="261" r="0.7" fill="#eaf2ff" opacity="0.30"/><circle cx="1812" cy="806" r="1.3" fill="#eaf2ff" opacity="0.41"/><circle cx="1032" cy="265" r="1.6" fill="#eaf2ff" opacity="0.50"/><circle cx="386" cy="333" r="1.9" fill="#eaf2ff" opacity="0.61"/><circle cx="136" cy="211" r="1.7" fill="#eaf2ff" opacity="0.30"/><circle cx="256" cy="52" r="1.9" fill="#eaf2ff" opacity="0.87"/><circle cx="227" cy="568" r="2.2" fill="#eaf2ff" opacity="0.43"/><circle cx="95" cy="566" r="2.1" fill="#eaf2ff" opacity="0.55"/><circle cx="903" cy="397" r="0.9" fill="#eaf2ff" opacity="0.83"/><circle cx="637" cy="672" r="0.8" fill="#eaf2ff" opacity="0.92"/><circle cx="1050" cy="692" r="1.9" fill="#eaf2ff" opacity="0.93"/><circle cx="412" cy="119" r="1.4" fill="#eaf2ff" opacity="0.84"/><circle cx="975" cy="350" r="0.7" fill="#eaf2ff" opacity="0.46"/><circle cx="440" cy="294" r="2.2" fill="#eaf2ff" opacity="0.51"/><circle cx="63" cy="693" r="1.0" fill="#eaf2ff" opacity="0.66"/><circle cx="602" cy="192" r="1.3" fill="#eaf2ff" opacity="0.90"/><circle cx="1466" cy="846" r="0.7" fill="#eaf2ff" opacity="0.45"/><circle cx="1136" cy="54" r="0.9" fill="#eaf2ff" opacity="0.78"/><circle cx="799" cy="788" r="2.1" fill="#eaf2ff" opacity="0.61"/><circle cx="1567" cy="283" r="1.9" fill="#eaf2ff" opacity="0.52"/><circle cx="1072" cy="562" r="2.3" fill="#eaf2ff" opacity="0.94"/><circle cx="924" cy="72" r="0.6" fill="#eaf2ff" opacity="0.77"/><circle cx="104" cy="81" r="2.0" fill="#eaf2ff" opacity="0.48"/><circle cx="1149" cy="153" r="1.2" fill="#eaf2ff" opacity="0.92"/><circle cx="338" cy="406" r="1.6" fill="#eaf2ff" opacity="0.43"/><circle cx="277" cy="831" r="2.0" fill="#eaf2ff" opacity="0.81"/><circle cx="729" cy="301" r="2.0" fill="#eaf2ff" opacity="0.49"/><circle cx="321" cy="609" r="1.0" fill="#eaf2ff" opacity="0.77"/><circle cx="1445" cy="465" r="1.4" fill="#eaf2ff" opacity="0.57"/><circle cx="1092" cy="711" r="1.0" fill="#eaf2ff" opacity="0.81"/><circle cx="232" cy="385" r="1.7" fill="#eaf2ff" opacity="0.85"/><circle cx="1049" cy="460" r="1.3" fill="#eaf2ff" opacity="0.92"/><circle cx="1596" cy="203" r="0.8" fill="#eaf2ff" opacity="0.25"/><circle cx="1353" cy="325" r="1.4" fill="#eaf2ff" opacity="0.43"/><circle cx="368" cy="520" r="1.1" fill="#eaf2ff" opacity="0.94"/><circle cx="1603" cy="252" r="0.9" fill="#eaf2ff" opacity="0.68"/><circle cx="1123" cy="134" r="1.1" fill="#eaf2ff" opacity="0.69"/><circle cx="682" cy="351" r="2.0" fill="#eaf2ff" opacity="0.39"/><circle cx="471" cy="564" r="0.8" fill="#eaf2ff" opacity="0.45"/><circle cx="821" cy="402" r="2.2" fill="#eaf2ff" opacity="0.69"/><circle cx="1353" cy="543" r="1.7" fill="#eaf2ff" opacity="0.43"/><circle cx="1402" cy="843" r="1.5" fill="#eaf2ff" opacity="0.74"/><circle cx="1729" cy="834" r="2.2" fill="#eaf2ff" opacity="0.90"/><circle cx="1739" cy="800" r="1.4" fill="#eaf2ff" opacity="0.84"/><circle cx="1836" cy="794" r="0.9" fill="#eaf2ff" opacity="0.62"/><circle cx="1285" cy="250" r="0.7" fill="#eaf2ff" opacity="0.38"/><circle cx="1200" cy="827" r="2.1" fill="#eaf2ff" opacity="0.67"/><circle cx="1131" cy="122" r="1.7" fill="#eaf2ff" opacity="0.56"/><circle cx="770" cy="124" r="2.1" fill="#eaf2ff" opacity="0.30"/><circle cx="1017" cy="330" r="1.6" fill="#eaf2ff" opacity="0.41"/><circle cx="569" cy="303" r="1.7" fill="#eaf2ff" opacity="0.30"/><circle cx="1464" cy="163" r="0.8" fill="#eaf2ff" opacity="0.43"/><circle cx="550" cy="784" r="1.0" fill="#eaf2ff" opacity="0.50"/><circle cx="1429" cy="156" r="2.0" fill="#eaf2ff" opacity="0.34"/><circle cx="807" cy="70" r="1.4" fill="#eaf2ff" opacity="0.54"/><circle cx="1078" cy="123" r="1.6" fill="#eaf2ff" opacity="0.73"/><circle cx="1151" cy="271" r="2.0" fill="#eaf2ff" opacity="0.43"/><circle cx="79" cy="437" r="1.5" fill="#eaf2ff" opacity="0.38"/><circle cx="41" cy="708" r="0.9" fill="#eaf2ff" opacity="0.85"/><circle cx="1015" cy="353" r="1.3" fill="#eaf2ff" opacity="0.33"/><circle cx="559" cy="82" r="2.3" fill="#eaf2ff" opacity="0.44"/><circle cx="641" cy="474" r="1.9" fill="#eaf2ff" opacity="0.63"/><circle cx="382" cy="108" r="0.8" fill="#eaf2ff" opacity="0.52"/><circle cx="1609" cy="481" r="1.5" fill="#eaf2ff" opacity="0.46"/><circle cx="315" cy="9" r="2.2" fill="#eaf2ff" opacity="0.55"/><circle cx="531" cy="124" r="1.8" fill="#eaf2ff" opacity="0.76"/><circle cx="667" cy="454" r="2.0" fill="#eaf2ff" opacity="0.93"/><circle cx="346" cy="791" r="1.3" fill="#eaf2ff" opacity="0.36"/><circle cx="822" cy="108" r="2.0" fill="#eaf2ff" opacity="0.82"/><circle cx="935" cy="591" r="1.4" fill="#eaf2ff" opacity="0.90"/><circle cx="92" cy="754" r="2.1" fill="#eaf2ff" opacity="0.53"/><circle cx="615" cy="650" r="0.8" fill="#eaf2ff" opacity="0.47"/><circle cx="1771" cy="597" r="1.0" fill="#eaf2ff" opacity="0.85"/><circle cx="833" cy="486" r="2.2" fill="#eaf2ff" opacity="0.83"/><circle cx="1191" cy="568" r="1.1" fill="#eaf2ff" opacity="0.87"/><circle cx="616" cy="176" r="1.9" fill="#eaf2ff" opacity="0.54"/><circle cx="10" cy="579" r="1.2" fill="#eaf2ff" opacity="0.33"/><circle cx="1909" cy="454" r="2.2" fill="#eaf2ff" opacity="0.38"/><circle cx="670" cy="805" r="1.7" fill="#eaf2ff" opacity="0.44"/><circle cx="823" cy="738" r="1.8" fill="#eaf2ff" opacity="0.89"/><circle cx="208" cy="11" r="1.9" fill="#eaf2ff" opacity="0.89"/><circle cx="1293" cy="418" r="1.7" fill="#eaf2ff" opacity="0.31"/><circle cx="711" cy="667" r="1.7" fill="#eaf2ff" opacity="0.88"/><circle cx="1211" cy="717" r="1.4" fill="#eaf2ff" opacity="0.74"/><circle cx="1845" cy="489" r="1.2" fill="#eaf2ff" opacity="0.62"/><circle cx="954" cy="72" r="2.2" fill="#eaf2ff" opacity="0.77"/><circle cx="435" cy="504" r="1.8" fill="#eaf2ff" opacity="0.41"/><circle cx="1686" cy="724" r="1.5" fill="#eaf2ff" opacity="0.44"/><circle cx="914" cy="427" r="0.9" fill="#eaf2ff" opacity="0.32"/><circle cx="1082" cy="848" r="0.8" fill="#eaf2ff" opacity="0.37"/><circle cx="175" cy="829" r="1.8" fill="#eaf2ff" opacity="0.93"/><circle cx="1868" cy="553" r="0.6" fill="#eaf2ff" opacity="0.70"/><circle cx="590" cy="570" r="1.2" fill="#eaf2ff" opacity="0.38"/><circle cx="514" cy="506" r="1.7" fill="#eaf2ff" opacity="0.46"/><circle cx="1259" cy="155" r="0.9" fill="#eaf2ff" opacity="0.28"/><circle cx="242" cy="259" r="0.9" fill="#eaf2ff" opacity="0.90"/><circle cx="141" cy="348" r="0.6" fill="#eaf2ff" opacity="0.91"/><circle cx="364" cy="707" r="1.1" fill="#eaf2ff" opacity="0.92"/><circle cx="1315" cy="505" r="0.8" fill="#eaf2ff" opacity="0.32"/><circle cx="337" cy="59" r="1.4" fill="#eaf2ff" opacity="0.62"/><circle cx="466" cy="144" r="0.7" fill="#eaf2ff" opacity="0.29"/><circle cx="1250" cy="128" r="2.2" fill="#eaf2ff" opacity="0.48"/><circle cx="462" cy="228" r="1.7" fill="#eaf2ff" opacity="0.78"/><circle cx="923" cy="828" r="0.8" fill="#eaf2ff" opacity="0.25"/><circle cx="1328" cy="604" r="1.0" fill="#eaf2ff" opacity="0.46"/><circle cx="1796" cy="562" r="0.9" fill="#eaf2ff" opacity="0.44"/><circle cx="1095" cy="692" r="0.8" fill="#eaf2ff" opacity="0.58"/><circle cx="908" cy="752" r="1.9" fill="#eaf2ff" opacity="0.73"/><circle cx="1779" cy="765" r="2.0" fill="#eaf2ff" opacity="0.78"/><circle cx="344" cy="326" r="1.9" fill="#eaf2ff" opacity="0.34"/><circle cx="1270" cy="277" r="0.8" fill="#eaf2ff" opacity="0.35"/><circle cx="1691" cy="541" r="1.0" fill="#eaf2ff" opacity="0.85"/><circle cx="1867" cy="321" r="1.8" fill="#eaf2ff" opacity="0.70"/><path d="M1775 474 L1776.4 477.6 L1780 479 L1776.4 480.4 L1775 484 L1773.6 480.4 L1770 479 L1773.6 477.6 Z" fill="#ffffff" opacity="0.64"/><path d="M892 347 L893.4 350.6 L897 352 L893.4 353.4 L892 357 L890.6 353.4 L887 352 L890.6 350.6 Z" fill="#ffffff" opacity="0.61"/><path d="M1186 269 L1187.4 277.6 L1196 279 L1187.4 280.4 L1186 289 L1184.6 280.4 L1176 279 L1184.6 277.6 Z" fill="#ffffff" opacity="0.76"/><path d="M1781 509 L1782.4 513.6 L1787 515 L1782.4 516.4 L1781 521 L1779.6 516.4 L1775 515 L1779.6 513.6 Z" fill="#ffffff" opacity="0.88"/><path d="M661 199 L662.4 210.6 L674 212 L662.4 213.4 L661 225 L659.6 213.4 L648 212 L659.6 210.6 Z" fill="#ffffff" opacity="0.76"/><path d="M1501 149 L1502.4 153.6 L1507 155 L1502.4 156.4 L1501 161 L1499.6 156.4 L1495 155 L1499.6 153.6 Z" fill="#ffffff" opacity="0.85"/><path d="M650 90 L651.4 93.6 L655 95 L651.4 96.4 L650 100 L648.6 96.4 L645 95 L648.6 93.6 Z" fill="#ffffff" opacity="0.75"/><path d="M360 399 L361.4 407.6 L370 409 L361.4 410.4 L360 419 L358.6 410.4 L350 409 L358.6 407.6 Z" fill="#ffffff" opacity="0.76"/><path d="M251 282 L252.4 293.6 L264 295 L252.4 296.4 L251 308 L249.6 296.4 L238 295 L249.6 293.6 Z" fill="#ffffff" opacity="0.87"/><path d="M1581 290 L1582.4 297.6 L1590 299 L1582.4 300.4 L1581 308 L1579.6 300.4 L1572 299 L1579.6 297.6 Z" fill="#ffffff" opacity="0.52"/><path d="M1267 67 L1268.4 75.6 L1277 77 L1268.4 78.4 L1267 87 L1265.6 78.4 L1257 77 L1265.6 75.6 Z" fill="#ffffff" opacity="0.88"/><path d="M637 473 L638.4 482.6 L648 484 L638.4 485.4 L637 495 L635.6 485.4 L626 484 L635.6 482.6 Z" fill="#ffffff" opacity="0.71"/><path d="M94 258 L95.4 262.6 L100 264 L95.4 265.4 L94 270 L92.6 265.4 L88 264 L92.6 262.6 Z" fill="#ffffff" opacity="0.85"/><path d="M823 286 L824.4 295.6 L834 297 L824.4 298.4 L823 308 L821.6 298.4 L812 297 L821.6 295.6 Z" fill="#ffffff" opacity="0.58"/>
<circle cx="1500" cy="230" r="180" fill="url(#moonglow)"/>
<circle cx="1500" cy="230" r="64" fill="#fbf1d3"/>
<circle cx="1478" cy="212" r="12" fill="#e8dcb8" opacity="0.7"/><circle cx="1516" cy="248" r="8" fill="#e8dcb8" opacity="0.6"/><circle cx="1524" cy="216" r="5" fill="#e8dcb8" opacity="0.5"/>
<g filter="url(#nsoft)"><ellipse cx="-98" cy="820" rx="61" ry="45" fill="#9db4e8" opacity="0.13"/><ellipse cx="-56" cy="818" rx="58" ry="43" fill="#9db4e8" opacity="0.13"/><ellipse cx="-0" cy="844" rx="55" ry="41" fill="#9db4e8" opacity="0.13"/><ellipse cx="81" cy="852" rx="67" ry="50" fill="#9db4e8" opacity="0.13"/><ellipse cx="139" cy="839" rx="68" ry="51" fill="#9db4e8" opacity="0.13"/><ellipse cx="186" cy="828" rx="74" ry="55" fill="#9db4e8" opacity="0.13"/><ellipse cx="236" cy="832" rx="66" ry="49" fill="#9db4e8" opacity="0.13"/><ellipse cx="651" cy="591" rx="79" ry="58" fill="#9db4e8" opacity="0.17"/><ellipse cx="728" cy="612" rx="131" ry="97" fill="#9db4e8" opacity="0.17"/><ellipse cx="879" cy="651" rx="104" ry="77" fill="#9db4e8" opacity="0.17"/><ellipse cx="963" cy="660" rx="144" ry="107" fill="#9db4e8" opacity="0.17"/><ellipse cx="1058" cy="658" rx="137" ry="101" fill="#9db4e8" opacity="0.17"/><ellipse cx="1132" cy="618" rx="110" ry="82" fill="#9db4e8" opacity="0.17"/><ellipse cx="1261" cy="615" rx="104" ry="77" fill="#9db4e8" opacity="0.17"/><ellipse cx="1012" cy="857" rx="55" ry="41" fill="#9db4e8" opacity="0.15"/><ellipse cx="1100" cy="861" rx="95" ry="70" fill="#9db4e8" opacity="0.15"/><ellipse cx="1149" cy="863" rx="91" ry="68" fill="#9db4e8" opacity="0.15"/><ellipse cx="1213" cy="882" rx="90" ry="66" fill="#9db4e8" opacity="0.15"/><ellipse cx="1307" cy="849" rx="66" ry="49" fill="#9db4e8" opacity="0.15"/><ellipse cx="956" cy="846" rx="42" ry="31" fill="#9db4e8" opacity="0.11"/><ellipse cx="999" cy="852" rx="60" ry="44" fill="#9db4e8" opacity="0.11"/><ellipse cx="1089" cy="860" rx="81" ry="60" fill="#9db4e8" opacity="0.11"/><ellipse cx="1140" cy="871" rx="80" ry="60" fill="#9db4e8" opacity="0.11"/><ellipse cx="1199" cy="862" rx="58" ry="43" fill="#9db4e8" opacity="0.11"/><ellipse cx="1248" cy="859" rx="49" ry="36" fill="#9db4e8" opacity="0.11"/><ellipse cx="1576" cy="723" rx="63" ry="46" fill="#9db4e8" opacity="0.11"/><ellipse cx="1680" cy="756" rx="117" ry="87" fill="#9db4e8" opacity="0.11"/><ellipse cx="1781" cy="777" rx="135" ry="100" fill="#9db4e8" opacity="0.11"/><ellipse cx="1850" cy="745" rx="112" ry="83" fill="#9db4e8" opacity="0.11"/><ellipse cx="1957" cy="729" rx="81" ry="60" fill="#9db4e8" opacity="0.11"/><ellipse cx="216" cy="635" rx="69" ry="51" fill="#9db4e8" opacity="0.13"/><ellipse cx="303" cy="630" rx="55" ry="41" fill="#9db4e8" opacity="0.13"/><ellipse cx="378" cy="655" rx="66" ry="49" fill="#9db4e8" opacity="0.13"/><ellipse cx="419" cy="650" rx="82" ry="61" fill="#9db4e8" opacity="0.13"/><ellipse cx="522" cy="657" rx="106" ry="78" fill="#9db4e8" opacity="0.13"/><ellipse cx="584" cy="632" rx="76" ry="56" fill="#9db4e8" opacity="0.13"/></g>
<path d="M0 850 L240 720 L430 800 L660 680 L900 790 L1130 700 L1370 810 L1590 730 L1800 820 L1920 760 L1920 1080 L0 1080 Z" fill="#0a0e2a" opacity="0.9"/>
<path d="M0 950 L320 850 L560 920 L820 830 L1100 920 L1380 850 L1660 930 L1920 870 L1920 1080 L0 1080 Z" fill="#060a20"/>
</svg>