<svg xmlns="http://www.w3.org/2000/svg" width="1920" height="1080" viewBox="0 0 1920 1080">
<defs>
<linearGradient id="sky" x1="0" y1="0" x2="0.25" y2="1">
  <stop offset="0" stop-color="#7ec3f0"/><stop offset="0.35" stop-color="#a5d8f5"/>
  <stop offset="0.62" stop-color="#ffd9c4"/><stop offset="0.82" stop-color="#ffb99d"/><stop offset="1" stop-color="#ff9e8a"/>
</linearGradient>
<radialGradient id="sun" cx="0.72" cy="0.58" r="0.5">
  <stop offset="0" stop-color="#fff3d6" stop-opacity="0.95"/><stop offset="0.35" stop-color="#ffdba8" stop-opacity="0.5"/><stop offset="1" stop-color="#ffdba8" stop-opacity="0"/>
</radialGradient>
<filter id="soft" x="-40%" y="-40%" width="180%" height="180%"><feGaussianBlur stdDeviation="18"/></filter>
<filter id="softer" x="-40%" y="-40%" width="180%" height="180%"><feGaussianBlur stdDeviation="30"/></filter>
</defs>
<rect width="1920" height="1080" fill="url(#sky)"/>
<rect width="1920" height="1080" fill="url(#sun)"/>
<circle cx="1382" cy="626" r="60" fill="#fff8e7" opacity="0.95"/>
<circle cx="1382" cy="626" r="110" fill="#fff3d6" opacity="0.35" filter="url(#soft)"/>
<g filter="url(#soft)"><ellipse cx="714" cy="410" rx="57" ry="42" fill="#ffffff" opacity="0.83"/><ellipse cx="801" cy="398" rx="56" ry="41" fill="#ffffff" opacity="0.83"/><ellipse cx="869" cy="404" rx="71" ry="52" fill="#ffffff" opacity="0.83"/><ellipse cx="932" cy="410" rx="79" ry="58" fill="#ffffff" opacity="0.83"/><ellipse cx="1006" cy="416" rx="82" ry="61" fill="#ffffff" opacity="0.83"/><ellipse cx="1071" cy="418" rx="70" ry="52" fill="#ffffff" opacity="0.83"/><ellipse cx="1244" cy="457" rx="42" ry="31" fill="#ffffff" opacity="0.64"/><ellipse cx="1284" cy="460" rx="43" ry="32" fill="#ffffff" opacity="0.64"/><ellipse cx="1333" cy="459" rx="79" ry="58" fill="#ffffff" opacity="0.64"/><ellipse cx="1407" cy="467" rx="53" ry="39" fill="#ffffff" opacity="0.64"/><ellipse cx="1453" cy="456" rx="52" ry="38" fill="#ffffff" opacity="0.64"/><ellipse cx="1519" cy="468" rx="53" ry="39" fill="#ffffff" opacity="0.64"/><ellipse cx="1584" cy="435" rx="73" ry="54" fill="#ffffff" opacity="0.64"/><ellipse cx="688" cy="260" rx="61" ry="45" fill="#ffffff" opacity="0.86"/><ellipse cx="722" cy="244" rx="77" ry="57" fill="#ffffff" opacity="0.86"/><ellipse cx="803" cy="270" rx="75" ry="56" fill="#ffffff" opacity="0.86"/><ellipse cx="873" cy="277" rx="69" ry="51" fill="#ffffff" opacity="0.86"/><ellipse cx="947" cy="265" rx="66" ry="49" fill="#ffffff" opacity="0.86"/><ellipse cx="1003" cy="265" rx="55" ry="41" fill="#ffffff" opacity="0.86"/><ellipse cx="1575" cy="453" rx="38" ry="28" fill="#ffffff" opacity="0.87"/><ellipse cx="1615" cy="457" rx="35" ry="26" fill="#ffffff" opacity="0.87"/><ellipse cx="1642" cy="450" rx="42" ry="31" fill="#ffffff" opacity="0.87"/><ellipse cx="1691" cy="469" rx="45" ry="33" fill="#ffffff" opacity="0.87"/><ellipse cx="1747" cy="470" rx="51" ry="38" fill="#ffffff" opacity="0.87"/><ellipse cx="1796" cy="462" rx="43" ry="32" fill="#ffffff" opacity="0.87"/><ellipse cx="1824" cy="462" rx="37" ry="27" fill="#ffffff" opacity="0.87"/><ellipse cx="144" cy="522" rx="48" ry="36" fill="#ffffff" opacity="0.89"/><ellipse cx="196" cy="530" rx="70" ry="52" fill="#ffffff" opacity="0.89"/><ellipse cx="240" cy="544" rx="70" ry="52" fill="#ffffff" opacity="0.89"/><ellipse cx="324" cy="550" rx="58" ry="43" fill="#ffffff" opacity="0.89"/><ellipse cx="394" cy="546" rx="92" ry="68" fill="#ffffff" opacity="0.89"/><ellipse cx="429" cy="556" rx="58" ry="43" fill="#ffffff" opacity="0.89"/><ellipse cx="513" cy="523" rx="67" ry="49" fill="#ffffff" opacity="0.89"/><ellipse cx="136" cy="499" rx="47" ry="35" fill="#ffffff" opacity="0.80"/><ellipse cx="187" cy="516" rx="56" ry="42" fill="#ffffff" opacity="0.80"/><ellipse cx="259" cy="523" rx="64" ry="47" fill="#ffffff" opacity="0.80"/><ellipse cx="305" cy="517" rx="78" ry="57" fill="#ffffff" opacity="0.80"/><ellipse cx="367" cy="514" rx="42" ry="31" fill="#ffffff" opacity="0.80"/><ellipse cx="78" cy="341" rx="37" ry="27" fill="#ffffff" opacity="0.76"/><ellipse cx="135" cy="364" rx="63" ry="47" fill="#ffffff" opacity="0.76"/><ellipse cx="177" cy="374" rx="74" ry="55" fill="#ffffff" opacity="0.76"/><ellipse cx="245" cy="387" rx="78" ry="58" fill="#ffffff" opacity="0.76"/><ellipse cx="292" cy="371" rx="75" ry="56" fill="#ffffff" opacity="0.76"/><ellipse cx="361" cy="349" rx="61" ry="45" fill="#ffffff" opacity="0.76"/><ellipse cx="647" cy="609" rx="67" ry="49" fill="#ffffff" opacity="0.72"/><ellipse cx="683" cy="599" rx="46" ry="34" fill="#ffffff" opacity="0.72"/><ellipse cx="761" cy="618" rx="53" ry="39" fill="#ffffff" opacity="0.72"/><ellipse cx="799" cy="609" rx="77" ry="57" fill="#ffffff" opacity="0.72"/><ellipse cx="874" cy="607" rx="76" ry="56" fill="#ffffff" opacity="0.72"/><ellipse cx="936" cy="607" rx="46" ry="34" fill="#ffffff" opacity="0.72"/><ellipse cx="20" cy="291" rx="35" ry="26" fill="#ffffff" opacity="0.72"/><ellipse cx="66" cy="289" rx="31" ry="23" fill="#ffffff" opacity="0.72"/><ellipse cx="108" cy="299" rx="52" ry="39" fill="#ffffff" opacity="0.72"/><ellipse cx="136" cy="291" rx="39" ry="29" fill="#ffffff" opacity="0.72"/><ellipse cx="178" cy="288" rx="46" ry="34" fill="#ffffff" opacity="0.72"/><ellipse cx="203" cy="299" rx="34" ry="25" fill="#ffffff" opacity="0.72"/><ellipse cx="257" cy="295" rx="40" ry="30" fill="#ffffff" opacity="0.72"/></g>
<path d="M0 780 L260 640 L420 730 L640 590 L860 720 L1060 630 L1280 750 L1500 660 L1720 760 L1920 680 L1920 1080 L0 1080 Z" fill="#b48ec9" opacity="0.30"/>
<path d="M0 880 L300 760 L520 840 L780 730 L1040 830 L1300 750 L1560 850 L1920 780 L1920 1080 L0 1080 Z" fill="#8e79c9" opacity="0.32"/>
<g filter="url(#softer)"><ellipse cx="1354" cy="949" rx="70" ry="52" fill="#fff6ee" opacity="0.72"/><ellipse cx="1453" cy="969" rx="108" ry="80" fill="#fff6ee" opacity="0.72"/><ellipse cx="1529" cy="969" rx="120" ry="89" fill="#fff6ee" opacity="0.72"/><ellipse cx="1599" cy="1012" rx="122" ry="91" fill="#fff6ee" opacity="0.72"/><ellipse cx="1683" cy="980" rx="128" ry="94" fill="#fff6ee" opacity="0.72"/><ellipse cx="1754" cy="976" rx="103" ry="76" fill="#fff6ee" opacity="0.72"/><ellipse cx="1832" cy="983" rx="85" ry="63" fill="#fff6ee" opacity="0.72"/><ellipse cx="780" cy="956" rx="115" ry="86" fill="#fff6ee" opacity="0.71"/><ellipse cx="938" cy="950" rx="106" ry="78" fill="#fff6ee" opacity="0.71"/><ellipse cx="1080" cy="956" rx="119" ry="88" fill="#fff6ee" opacity="0.71"/><ellipse cx="1167" cy="994" rx="113" ry="84" fill="#fff6ee" opacity="0.71"/><ellipse cx="1292" cy="964" rx="112" ry="83" fill="#fff6ee" opacity="0.71"/><ellipse cx="1417" cy="947" rx="148" ry="109" fill="#fff6ee" opacity="0.71"/><ellipse cx="1504" cy="928" rx="107" ry="79" fill="#fff6ee" opacity="0.71"/><ellipse cx="572" cy="874" rx="60" ry="44" fill="#fff6ee" opacity="0.99"/><ellipse cx="665" cy="898" rx="99" ry="73" fill="#fff6ee" opacity="0.99"/><ellipse cx="744" cy="899" rx="87" ry="64" fill="#fff6ee" opacity="0.99"/><ellipse cx="828" cy="889" rx="83" ry="61" fill="#fff6ee" opacity="0.99"/><ellipse cx="936" cy="878" rx="110" ry="81" fill="#fff6ee" opacity="0.99"/><ellipse cx="183" cy="984" rx="103" ry="76" fill="#fff6ee" opacity="0.74"/><ellipse cx="280" cy="983" rx="154" ry="114" fill="#fff6ee" opacity="0.74"/><ellipse cx="409" cy="1023" rx="167" ry="124" fill="#fff6ee" opacity="0.74"/><ellipse cx="531" cy="1002" rx="165" ry="122" fill="#fff6ee" opacity="0.74"/><ellipse cx="672" cy="996" rx="168" ry="124" fill="#fff6ee" opacity="0.74"/><ellipse cx="795" cy="1026" rx="129" ry="96" fill="#fff6ee" opacity="0.74"/><ellipse cx="927" cy="1011" rx="101" ry="75" fill="#fff6ee" opacity="0.74"/><ellipse cx="500" cy="935" rx="98" ry="73" fill="#fff6ee" opacity="0.73"/><ellipse cx="568" cy="937" rx="72" ry="53" fill="#fff6ee" opacity="0.73"/><ellipse cx="675" cy="954" rx="120" ry="89" fill="#fff6ee" opacity="0.73"/><ellipse cx="789" cy="998" rx="92" ry="68" fill="#fff6ee" opacity="0.73"/><ellipse cx="883" cy="977" rx="120" ry="89" fill="#fff6ee" opacity="0.73"/><ellipse cx="976" cy="977" rx="118" ry="87" fill="#fff6ee" opacity="0.73"/><ellipse cx="426" cy="846" rx="67" ry="50" fill="#fff6ee" opacity="0.87"/><ellipse cx="478" cy="858" rx="89" ry="66" fill="#fff6ee" opacity="0.87"/><ellipse cx="539" cy="874" rx="94" ry="69" fill="#fff6ee" opacity="0.87"/><ellipse cx="627" cy="875" rx="95" ry="70" fill="#fff6ee" opacity="0.87"/><ellipse cx="681" cy="892" rx="95" ry="70" fill="#fff6ee" opacity="0.87"/><ellipse cx="755" cy="883" rx="85" ry="63" fill="#fff6ee" opacity="0.87"/><ellipse cx="685" cy="951" rx="44" ry="33" fill="#fff6ee" opacity="0.97"/><ellipse cx="747" cy="971" rx="69" ry="51" fill="#fff6ee" opacity="0.97"/><ellipse cx="790" cy="977" rx="73" ry="54" fill="#fff6ee" opacity="0.97"/><ellipse cx="865" cy="987" rx="68" ry="50" fill="#fff6ee" opacity="0.97"/><ellipse cx="915" cy="964" rx="60" ry="45" fill="#fff6ee" opacity="0.97"/><ellipse cx="990" cy="966" rx="78" ry="58" fill="#fff6ee" opacity="0.97"/><ellipse cx="1379" cy="1023" rx="98" ry="73" fill="#fff6ee" opacity="0.95"/><ellipse cx="1483" cy="1003" rx="111" ry="82" fill="#fff6ee" opacity="0.95"/><ellipse cx="1552" cy="1019" rx="120" ry="89" fill="#fff6ee" opacity="0.95"/><ellipse cx="1661" cy="1038" rx="136" ry="101" fill="#fff6ee" opacity="0.95"/><ellipse cx="1778" cy="1024" rx="119" ry="88" fill="#fff6ee" opacity="0.95"/><ellipse cx="1396" cy="941" rx="131" ry="97" fill="#fff6ee" opacity="0.95"/><ellipse cx="1516" cy="969" rx="131" ry="97" fill="#fff6ee" opacity="0.95"/><ellipse cx="1666" cy="1017" rx="190" ry="141" fill="#fff6ee" opacity="0.95"/><ellipse cx="1736" cy="1024" rx="152" ry="113" fill="#fff6ee" opacity="0.95"/><ellipse cx="1896" cy="952" rx="143" ry="106" fill="#fff6ee" opacity="0.95"/><ellipse cx="805" cy="982" rx="93" ry="69" fill="#fff6ee" opacity="0.94"/><ellipse cx="928" cy="980" rx="86" ry="64" fill="#fff6ee" opacity="0.94"/><ellipse cx="1064" cy="999" rx="157" ry="116" fill="#fff6ee" opacity="0.94"/><ellipse cx="1121" cy="996" rx="130" ry="96" fill="#fff6ee" opacity="0.94"/><ellipse cx="1239" cy="988" rx="147" ry="109" fill="#fff6ee" opacity="0.94"/><ellipse cx="1384" cy="1004" rx="121" ry="90" fill="#fff6ee" opacity="0.94"/><ellipse cx="697" cy="931" rx="74" ry="55" fill="#fff6ee" opacity="0.81"/><ellipse cx="809" cy="932" rx="96" ry="71" fill="#fff6ee" opacity="0.81"/><ellipse cx="878" cy="952" rx="103" ry="77" fill="#fff6ee" opacity="0.81"/><ellipse cx="970" cy="929" rx="116" ry="86" fill="#fff6ee" opacity="0.81"/><ellipse cx="1058" cy="945" rx="80" ry="59" fill="#fff6ee" opacity="0.81"/><ellipse cx="1116" cy="913" rx="95" ry="71" fill="#fff6ee" opacity="0.81"/><ellipse cx="370" cy="990" rx="87" ry="65" fill="#fff6ee" opacity="0.90"/><ellipse cx="509" cy="1002" rx="91" ry="67" fill="#fff6ee" opacity="0.90"/><ellipse cx="575" cy="1025" rx="150" ry="111" fill="#fff6ee" opacity="0.90"/><ellipse cx="695" cy="1031" rx="150" ry="111" fill="#fff6ee" opacity="0.90"/><ellipse cx="786" cy="991" rx="115" ry="85" fill="#fff6ee" opacity="0.90"/><ellipse cx="639" cy="893" rx="74" ry="55" fill="#fff6ee" opacity="0.85"/><ellipse cx="705" cy="892" rx="117" ry="87" fill="#fff6ee" opacity="0.85"/><ellipse cx="793" cy="921" rx="124" ry="92" fill="#fff6ee" opacity="0.85"/><ellipse cx="925" cy="950" rx="110" ry="82" fill="#fff6ee" opacity="0.85"/><ellipse cx="1014" cy="921" rx="86" ry="63" fill="#fff6ee" opacity="0.85"/><ellipse cx="1139" cy="929" rx="98" ry="73" fill="#fff6ee" opacity="0.85"/><ellipse cx="369" cy="887" rx="130" ry="96" fill="#fff6ee" opacity="0.80"/><ellipse cx="460" cy="906" rx="128" ry="95" fill="#fff6ee" opacity="0.80"/><ellipse cx="567" cy="910" rx="110" ry="82" fill="#fff6ee" opacity="0.80"/><ellipse cx="715" cy="927" rx="109" ry="81" fill="#fff6ee" opacity="0.80"/><ellipse cx="806" cy="948" rx="138" ry="102" fill="#fff6ee" opacity="0.80"/><ellipse cx="928" cy="905" rx="98" ry="73" fill="#fff6ee" opacity="0.80"/></g>
</svg>